<svg xmlns="http://www.w3.org/2000/svg" xmlns:xlink="http://www.w3.org/1999/xlink" viewBox="0 0 500 500" width="500" height="500" preserveAspectRatio="xMidYMid meet" style="width: 100%; height: 100%; transform: translate3d(0px, 0px, 0px); content-visibility: visible;"><defs><clipPath id="__lottie_element_2028"><rect width="500" height="500" x="0" y="0"/></clipPath><clipPath id="__lottie_element_2030"><path d="M0,0 L500,0 L500,500 L0,500z"/></clipPath></defs><g clip-path="url(#__lottie_element_2028)"><g clip-path="url(#__lottie_element_2030)" transform="matrix(1,0,0,1,0,0)" opacity="1" style="display: block;"><g class="primary design" transform="matrix(1,0,0,1,0,0)" opacity="1" style="display: block;"><g opacity="1" transform="matrix(1,0,0,1,104.16400146484375,291.6650085449219)"><path class="primary" fill="rgb(18,19,49)" fill-opacity="1" d=" M20.83300018310547,0 C20.83300018310547,0 0,0 0,0 C0,0 0,-20.83300018310547 0,-20.83300018310547 C0,-32.3380012512207 -9.317999839782715,-41.66699981689453 -20.83300018310547,-41.66699981689453 C-32.347999572753906,-41.66699981689453 -41.66699981689453,-32.3380012512207 -41.66699981689453,-20.83300018310547 C-41.66699981689453,-20.83300018310547 -41.66699981689453,0 -41.66699981689453,0 C-41.66699981689453,22.969999313354492 -22.969999313354492,41.66699981689453 0,41.66699981689453 C0,41.66699981689453 20.83300018310547,41.66699981689453 20.83300018310547,41.66699981689453 C32.347999572753906,41.66699981689453 41.66699981689453,32.347999572753906 41.66699981689453,20.83300018310547 C41.66699981689453,9.317999839782715 32.347999572753906,0 20.83300018310547,0z"/></g><g opacity="1" transform="matrix(1,0,0,1,104.16400146484375,104.16500091552734)"><path class="primary" fill="rgb(18,19,49)" fill-opacity="1" d=" M20.83300018310547,-41.66699981689453 C20.83300018310547,-41.66699981689453 0,-41.66699981689453 0,-41.66699981689453 C-22.969999313354492,-41.66699981689453 -41.66699981689453,-22.979999542236328 -41.66699981689453,0 C-41.66699981689453,0 -41.66699981689453,20.83300018310547 -41.66699981689453,20.83300018310547 C-41.66699981689453,32.3380012512207 -32.347999572753906,41.66699981689453 -20.83300018310547,41.66699981689453 C-20.47800064086914,41.66699981689453 -20.125999450683594,41.65800094604492 -19.774999618530273,41.63999938964844 C-8.751999855041504,41.0890007019043 0,31.983999252319336 0,20.83300018310547 C0,20.83300018310547 0,0 0,0 C0,0 20.83300018310547,0 20.83300018310547,0 C32.347999572753906,0 41.66699981689453,-9.32800006866455 41.66699981689453,-20.83300018310547 C41.66699981689453,-21.76099967956543 41.60599899291992,-22.674999237060547 41.487998962402344,-23.570999145507812 C40.14899826049805,-33.78200149536133 31.41900062561035,-41.66699981689453 20.83300018310547,-41.66699981689453z"/></g><g opacity="1" transform="matrix(1,0,0,1,270.83099365234375,104.16500091552734)"><path class="primary" fill="rgb(18,19,49)" fill-opacity="1" d=" M-20.83300018310547,0 C-20.83300018310547,0 0,0 0,0 C0,0 0,20.83300018310547 0,20.83300018310547 C0,32.3380012512207 9.317999839782715,41.66699981689453 20.83300018310547,41.66699981689453 C32.347999572753906,41.66699981689453 41.66699981689453,32.3380012512207 41.66699981689453,20.83300018310547 C41.66699981689453,20.83300018310547 41.66699981689453,0 41.66699981689453,0 C41.66699981689453,-22.979999542236328 22.969999313354492,-41.66699981689453 0,-41.66699981689453 C0,-41.66699981689453 -20.83300018310547,-41.66699981689453 -20.83300018310547,-41.66699981689453 C-32.347999572753906,-41.66699981689453 -41.66699981689453,-32.3380012512207 -41.66699981689453,-20.83300018310547 C-41.66699981689453,-9.32800006866455 -32.347999572753906,0 -20.83300018310547,0z"/></g></g><g class="primary design" transform="matrix(1,0,0,1,0,0)" opacity="1" style="display: none;"><g opacity="1" transform="matrix(1,0,0,1,104.16400146484375,291.6650085449219)"><path class="primary" fill="rgb(18,19,49)" fill-opacity="1" d=" M20.83300018310547,0 C20.83300018310547,0 0,0 0,0 C0,0 0,-20.83300018310547 0,-20.83300018310547 C0,-32.3380012512207 -9.317999839782715,-41.66699981689453 -20.83300018310547,-41.66699981689453 C-32.347999572753906,-41.66699981689453 -41.66699981689453,-32.3380012512207 -41.66699981689453,-20.83300018310547 C-41.66699981689453,-20.83300018310547 -41.66699981689453,0 -41.66699981689453,0 C-41.66699981689453,22.969999313354492 -22.969999313354492,41.66699981689453 0,41.66699981689453 C0,41.66699981689453 20.83300018310547,41.66699981689453 20.83300018310547,41.66699981689453 C32.347999572753906,41.66699981689453 41.66699981689453,32.347999572753906 41.66699981689453,20.83300018310547 C41.66699981689453,9.317999839782715 32.347999572753906,0 20.83300018310547,0z"/></g><g opacity="1" transform="matrix(1,0,0,1,104.16400146484375,104.16500091552734)"><path class="primary" fill="rgb(18,19,49)" fill-opacity="1" d=" M20.83300018310547,-41.66699981689453 C20.83300018310547,-41.66699981689453 0,-41.66699981689453 0,-41.66699981689453 C-22.969999313354492,-41.66699981689453 -41.66699981689453,-22.979999542236328 -41.66699981689453,0 C-41.66699981689453,0 -41.66699981689453,20.83300018310547 -41.66699981689453,20.83300018310547 C-41.66699981689453,32.3380012512207 -32.347999572753906,41.66699981689453 -20.83300018310547,41.66699981689453 C-20.47800064086914,41.66699981689453 -20.125999450683594,41.65800094604492 -19.774999618530273,41.63999938964844 C-8.751999855041504,41.0890007019043 0,31.983999252319336 0,20.83300018310547 C0,20.83300018310547 0,0 0,0 C0,0 20.83300018310547,0 20.83300018310547,0 C32.347999572753906,0 41.66699981689453,-9.32800006866455 41.66699981689453,-20.83300018310547 C41.66699981689453,-21.76099967956543 41.60599899291992,-22.674999237060547 41.487998962402344,-23.570999145507812 C40.14899826049805,-33.78200149536133 31.41900062561035,-41.66699981689453 20.83300018310547,-41.66699981689453z"/></g><g opacity="1" transform="matrix(1,0,0,1,270.83099365234375,104.16500091552734)"><path class="primary" fill="rgb(18,19,49)" fill-opacity="1" d=" M-20.83300018310547,0 C-20.83300018310547,0 0,0 0,0 C0,0 0,20.83300018310547 0,20.83300018310547 C0,32.3380012512207 9.317999839782715,41.66699981689453 20.83300018310547,41.66699981689453 C32.347999572753906,41.66699981689453 41.66699981689453,32.3380012512207 41.66699981689453,20.83300018310547 C41.66699981689453,20.83300018310547 41.66699981689453,0 41.66699981689453,0 C41.66699981689453,-22.979999542236328 22.969999313354492,-41.66699981689453 0,-41.66699981689453 C0,-41.66699981689453 -20.83300018310547,-41.66699981689453 -20.83300018310547,-41.66699981689453 C-32.347999572753906,-41.66699981689453 -41.66699981689453,-32.3380012512207 -41.66699981689453,-20.83300018310547 C-41.66699981689453,-9.32800006866455 -32.347999572753906,0 -20.83300018310547,0z"/></g></g><g class="primary design" transform="matrix(1,0,0,1,0,0)" opacity="1" style="display: none;"><g opacity="1" transform="matrix(1,0,0,1,302.08099365234375,312.49798583984375)"><path class="primary" fill="rgb(18,19,49)" fill-opacity="1" d=" M72.89603424072266,-125.02532196044922 C72.89603424072266,-125.02532196044922 -72.94219207763672,-125.0252456665039 -72.94219207763672,-125.0252456665039 C-95.91219329833984,-125.0252456665039 -114.60819244384766,-106.33824157714844 -114.60819244384766,-83.35824584960938 C-114.60819244384766,-83.35824584960938 -114.60820007324219,83.31198120117188 -114.60820007324219,83.31198120117188 C-114.60820007324219,106.281982421875 -95.91220092773438,124.97898864746094 -72.94219970703125,124.97898864746094 C-72.94219970703125,124.97898864746094 72.89602661132812,124.97891235351562 72.89602661132812,124.97891235351562 C95.86602783203125,124.97891235351562 114.56202697753906,106.28190612792969 114.56202697753906,83.3119125366211 C114.56202697753906,83.3119125366211 114.5620346069336,-83.35832214355469 114.5620346069336,-83.35832214355469 C114.5620346069336,-106.33831787109375 95.86603546142578,-125.02532196044922 72.89603424072266,-125.02532196044922z"/></g></g><g class="primary design" transform="matrix(1,0,0,1,0,0)" opacity="1" style="display: block;"><g opacity="1" transform="matrix(1,0,0,1,302.08099365234375,312.49798583984375)"><path class="primary" fill="rgb(18,19,49)" fill-opacity="1" d=" M72.91699981689453,-125 C72.91699981689453,-125 -72.91699981689453,-125 -72.91699981689453,-125 C-95.88700103759766,-125 -114.58300018310547,-106.31300354003906 -114.58300018310547,-83.33300018310547 C-114.58300018310547,-83.33300018310547 -114.58300018310547,83.33300018310547 -114.58300018310547,83.33300018310547 C-114.58300018310547,106.3030014038086 -95.88700103759766,125 -72.91699981689453,125 C-72.91699981689453,125 72.91699981689453,125 72.91699981689453,125 C95.88700103759766,125 114.58300018310547,106.3030014038086 114.58300018310547,83.33300018310547 C114.58300018310547,83.33300018310547 114.58300018310547,-83.33300018310547 114.58300018310547,-83.33300018310547 C114.58300018310547,-106.31300354003906 95.88700103759766,-125 72.91699981689453,-125z"/></g></g><g class="primary design" transform="matrix(1,0,0,1,0,0)" opacity="1" style="display: none;"><g opacity="1" transform="matrix(1,0,0,1,104.16400146484375,291.6650085449219)"><path class="primary" fill="rgb(18,19,49)" fill-opacity="1" d=" M20.83300018310547,0 C20.83300018310547,0 0,0 0,0 C0,0 0,-20.83300018310547 0,-20.83300018310547 C0,-32.3380012512207 -9.317999839782715,-41.66699981689453 -20.83300018310547,-41.66699981689453 C-32.347999572753906,-41.66699981689453 -41.66699981689453,-32.3380012512207 -41.66699981689453,-20.83300018310547 C-41.66699981689453,-20.83300018310547 -41.66699981689453,0 -41.66699981689453,0 C-41.66699981689453,22.969999313354492 -22.969999313354492,41.66699981689453 0,41.66699981689453 C0,41.66699981689453 20.83300018310547,41.66699981689453 20.83300018310547,41.66699981689453 C32.347999572753906,41.66699981689453 41.66699981689453,32.347999572753906 41.66699981689453,20.83300018310547 C41.66699981689453,9.317999839782715 32.347999572753906,0 20.83300018310547,0z"/></g><g opacity="1" transform="matrix(1,0,0,1,104.16400146484375,104.16500091552734)"><path class="primary" fill="rgb(18,19,49)" fill-opacity="1" d=" M20.83300018310547,-41.66699981689453 C20.83300018310547,-41.66699981689453 0,-41.66699981689453 0,-41.66699981689453 C-22.969999313354492,-41.66699981689453 -41.66699981689453,-22.979999542236328 -41.66699981689453,0 C-41.66699981689453,0 -41.66699981689453,20.83300018310547 -41.66699981689453,20.83300018310547 C-41.66699981689453,32.3380012512207 -32.347999572753906,41.66699981689453 -20.83300018310547,41.66699981689453 C-9.317999839782715,41.66699981689453 0,32.3380012512207 0,20.83300018310547 C0,20.83300018310547 0,0 0,0 C0,0 20.83300018310547,0 20.83300018310547,0 C32.347999572753906,0 41.66699981689453,-9.32800006866455 41.66699981689453,-20.83300018310547 C41.66699981689453,-32.3380012512207 32.347999572753906,-41.66699981689453 20.83300018310547,-41.66699981689453z"/></g><g opacity="1" transform="matrix(1,0,0,1,270.83099365234375,104.16500091552734)"><path class="primary" fill="rgb(18,19,49)" fill-opacity="1" d=" M-20.83300018310547,0 C-20.83300018310547,0 0,0 0,0 C0,0 0,20.83300018310547 0,20.83300018310547 C0,32.3380012512207 9.317999839782715,41.66699981689453 20.83300018310547,41.66699981689453 C32.347999572753906,41.66699981689453 41.66699981689453,32.3380012512207 41.66699981689453,20.83300018310547 C41.66699981689453,20.83300018310547 41.66699981689453,0 41.66699981689453,0 C41.66699981689453,-22.979999542236328 22.969999313354492,-41.66699981689453 0,-41.66699981689453 C0,-41.66699981689453 -20.83300018310547,-41.66699981689453 -20.83300018310547,-41.66699981689453 C-32.347999572753906,-41.66699981689453 -41.66699981689453,-32.3380012512207 -41.66699981689453,-20.83300018310547 C-41.66699981689453,-9.32800006866455 -32.347999572753906,0 -20.83300018310547,0z"/></g><g opacity="1" transform="matrix(1,0,0,1,302.08099365234375,312.49798583984375)"><path class="primary" fill="rgb(18,19,49)" fill-opacity="1" d=" M72.91699981689453,-125 C72.91699981689453,-125 -72.91699981689453,-125 -72.91699981689453,-125 C-95.88700103759766,-125 -114.58300018310547,-106.31300354003906 -114.58300018310547,-83.33300018310547 C-114.58300018310547,-83.33300018310547 -114.58300018310547,83.33300018310547 -114.58300018310547,83.33300018310547 C-114.58300018310547,106.3030014038086 -95.88700103759766,125 -72.91699981689453,125 C-72.91699981689453,125 72.91699981689453,125 72.91699981689453,125 C95.88700103759766,125 114.58300018310547,106.3030014038086 114.58300018310547,83.33300018310547 C114.58300018310547,83.33300018310547 114.58300018310547,-83.33300018310547 114.58300018310547,-83.33300018310547 C114.58300018310547,-106.31300354003906 95.88700103759766,-125 72.91699981689453,-125z"/></g></g></g></g></svg>