<svg xmlns="http://www.w3.org/2000/svg" xmlns:xlink="http://www.w3.org/1999/xlink" viewBox="0 0 240 240" width="240" height="240" preserveAspectRatio="xMidYMid meet" style="width: 100%; height: 100%; transform: translate3d(0px, 0px, 0px); content-visibility: visible;"><defs><clipPath id="__lottie_element_527"><rect width="240" height="240" x="0" y="0"/></clipPath><clipPath id="__lottie_element_529"><path d="M0,0 L240,0 L240,240 L0,240z"/></clipPath></defs><g clip-path="url(#__lottie_element_527)"><g clip-path="url(#__lottie_element_529)" transform="matrix(1,0,0,1,0,0)" opacity="1" style="display: block;"><g transform="matrix(1,0,0,1,93.75,126.24800109863281)" opacity="1" style="display: block;"><g opacity="1" transform="matrix(1,0,0,1,0,0)"><path class="primary" fill="rgb(18,19,49)" fill-opacity="1" d=" M-66.25,66.2490005493164 C-66.25,66.2490005493164 -66.25,21.250999450683594 -66.25,21.250999450683594 C-66.25,21.250999450683594 21.25,-66.2490005493164 21.25,-66.2490005493164 C21.25,-66.2490005493164 66.25,-21.249000549316406 66.25,-21.249000549316406 C66.25,-21.249000549316406 -21.25,66.2490005493164 -21.25,66.2490005493164 C-21.25,66.2490005493164 -66.25,66.2490005493164 -66.25,66.2490005493164z"/></g></g><g style="display: none;" transform="matrix(0.9849635362625122,-0.17276228964328766,0.17276228964328766,0.9849635362625122,106.39846801757812,100.8297348022461)" opacity="1"><g opacity="1" transform="matrix(1,0,0,1,0,0)"><path stroke-linecap="round" stroke-linejoin="round" fill-opacity="0" class="primary" stroke="rgb(18,19,49)" stroke-opacity="1" stroke-width="15" d=" M4.01643180847168,-49.43878173828125 C4.01643180847168,-49.43878173828125 49.016048431396484,-4.438782215118408 49.016048431396484,-4.438782215118408 M-79.17900085449219,79.1780014038086 C-79.17900085449219,79.1780014038086 -79.17900085449219,34.18000030517578 -79.17900085449219,34.18000030517578 C-79.17900085449219,34.18000030517578 4.01643180847168,-49.43878173828125 4.01643180847168,-49.43878173828125 C4.01643180847168,-49.43878173828125 26.945432662963867,-72.36778259277344 26.945432662963867,-72.36778259277344 C30.850431442260742,-76.27278137207031 37.182430267333984,-76.27278137207031 41.087432861328125,-72.36778259277344 C41.087432861328125,-72.36778259277344 71.94505310058594,-41.50978088378906 71.94505310058594,-41.50978088378906 C75.85005187988281,-37.60478210449219 75.85005187988281,-31.272781372070312 71.94505310058594,-27.367782592773438 C71.94505310058594,-27.367782592773438 49.016048431396484,-4.438782215118408 49.016048431396484,-4.438782215118408 C49.016048431396484,-4.438782215118408 -34.17900085449219,79.1780014038086 -34.17900085449219,79.1780014038086 C-34.17900085449219,79.1780014038086 -79.17900085449219,79.1780014038086 -79.17900085449219,79.1780014038086z"/></g></g><g transform="matrix(1,0,0,1,138.75,192.5)" opacity="1" style="display: none;"><g opacity="1" transform="matrix(1,0,0,1,0,0)"><path stroke-linecap="round" stroke-linejoin="round" fill-opacity="0" class="primary" stroke="rgb(18,19,49)" stroke-opacity="1" stroke-width="15" d=" M73.75,0 C73.75,0 -52.2599983215332,-0.1420000046491623 -95.6969985961914,-0.19200000166893005"/></g></g><g transform="matrix(1,0,0,1,120,113.31999969482422)" opacity="1" style="display: block;"><g opacity="1" transform="matrix(1,0,0,1,0,0)"><path class="primary" fill="rgb(18,19,49)" fill-opacity="1" d=" M23.23200035095215,-70.947998046875 C24.20800018310547,-71.92400360107422 25.79199981689453,-71.92400360107422 26.76799964904785,-70.947998046875 C26.76799964904785,-70.947998046875 57.62699890136719,-40.0890007019043 57.62699890136719,-40.0890007019043 C58.60100173950195,-39.11199951171875 58.60300064086914,-37.52899932861328 57.62699890136719,-36.553001403808594 C57.62699890136719,-36.553001403808594 40,-18.926000595092773 40,-18.926000595092773 C40,-18.926000595092773 5.605000019073486,-53.32099914550781 5.605000019073486,-53.32099914550781 C5.605000019073486,-53.32099914550781 23.23200035095215,-70.947998046875 23.23200035095215,-70.947998046875z M-85,71.67900085449219 C-85,71.67900085449219 -85,37.284000396728516 -85,37.284000396728516 C-85,37.284000396728516 -5,-42.71500015258789 -5,-42.71500015258789 C-5,-42.71500015258789 29.395000457763672,-8.321000099182129 29.395000457763672,-8.321000099182129 C29.395000457763672,-8.321000099182129 -50.60499954223633,71.67900085449219 -50.60499954223633,71.67900085449219 C-50.60499954223633,71.67900085449219 -85,71.67900085449219 -85,71.67900085449219z M37.37300109863281,-81.5530014038086 C30.538999557495117,-88.38700103759766 19.461000442504883,-88.38700103759766 12.626999855041504,-81.5530014038086 C12.626999855041504,-81.5530014038086 -97.8030014038086,28.875999450683594 -97.8030014038086,28.875999450683594 C-99.20899963378906,30.281999588012695 -100,32.191001892089844 -100,34.17900085449219 C-100,34.17900085449219 -100,79.17900085449219 -100,79.17900085449219 C-99.99700164794922,83.31900024414062 -96.63999938964844,86.67900085449219 -92.5,86.67900085449219 C-92.5,86.67900085449219 92.5,86.67900085449219 92.5,86.67900085449219 C96.64199829101562,86.67900085449219 100,83.32099914550781 100,79.17900085449219 C100,75.03700256347656 96.64199829101562,71.67900085449219 92.5,71.67900085449219 C92.5,71.67900085449219 -29.395000457763672,71.67900085449219 -29.395000457763672,71.67900085449219 C-29.395000457763672,71.67900085449219 68.23200225830078,-25.947999954223633 68.23200225830078,-25.947999954223633 C75.06500244140625,-32.78099822998047 75.06400299072266,-43.86000061035156 68.23200225830078,-50.694000244140625 C68.23200225830078,-50.694000244140625 37.37300109863281,-81.5530014038086 37.37300109863281,-81.5530014038086z"/></g></g><g transform="matrix(1,0,0,1,120,113.31999969482422)" opacity="1" style="display: none;"><g opacity="1" transform="matrix(1,0,0,1,0,0)"><path class="primary" fill="rgb(18,19,49)" fill-opacity="1" d=" M23.23200035095215,-70.947998046875 C24.20800018310547,-71.92400360107422 25.79199981689453,-71.92400360107422 26.76799964904785,-70.947998046875 C26.76799964904785,-70.947998046875 57.62699890136719,-40.0890007019043 57.62699890136719,-40.0890007019043 C58.60100173950195,-39.11199951171875 58.60300064086914,-37.52899932861328 57.62699890136719,-36.553001403808594 C57.62699890136719,-36.553001403808594 40,-18.926000595092773 40,-18.926000595092773 C40,-18.926000595092773 5.605000019073486,-53.32099914550781 5.605000019073486,-53.32099914550781 C5.605000019073486,-53.32099914550781 23.23200035095215,-70.947998046875 23.23200035095215,-70.947998046875z M-85,71.67900085449219 C-85,71.67900085449219 -85,37.284000396728516 -85,37.284000396728516 C-85,37.284000396728516 -5,-42.71500015258789 -5,-42.71500015258789 C-5,-42.71500015258789 29.395000457763672,-8.321000099182129 29.395000457763672,-8.321000099182129 C29.395000457763672,-8.321000099182129 -50.60499954223633,71.67900085449219 -50.60499954223633,71.67900085449219 C-50.60499954223633,71.67900085449219 -85,71.67900085449219 -85,71.67900085449219z M37.37300109863281,-81.5530014038086 C30.538999557495117,-88.38700103759766 19.461000442504883,-88.38700103759766 12.626999855041504,-81.5530014038086 C12.626999855041504,-81.5530014038086 -97.8030014038086,28.875999450683594 -97.8030014038086,28.875999450683594 C-99.20899963378906,30.281999588012695 -100,32.191001892089844 -100,34.17900085449219 C-100,34.17900085449219 -100,79.17900085449219 -100,79.17900085449219 C-99.99700164794922,83.31900024414062 -96.63999938964844,86.67900085449219 -92.5,86.67900085449219 C-92.5,86.67900085449219 92.5,86.67900085449219 92.5,86.67900085449219 C96.64199829101562,86.67900085449219 100,83.32099914550781 100,79.17900085449219 C100,75.03700256347656 96.64199829101562,71.67900085449219 92.5,71.67900085449219 C92.5,71.67900085449219 -29.395000457763672,71.67900085449219 -29.395000457763672,71.67900085449219 C-29.395000457763672,71.67900085449219 68.23200225830078,-25.947999954223633 68.23200225830078,-25.947999954223633 C75.06500244140625,-32.78099822998047 75.06400299072266,-43.86000061035156 68.23200225830078,-50.694000244140625 C68.23200225830078,-50.694000244140625 37.37300109863281,-81.5530014038086 37.37300109863281,-81.5530014038086z"/></g></g></g></g></svg>