<svg xmlns="http://www.w3.org/2000/svg" xmlns:xlink="http://www.w3.org/1999/xlink" viewBox="0 0 240 240" width="240" height="240" preserveAspectRatio="xMidYMid meet" style="width: 100%; height: 100%; transform: translate3d(0px, 0px, 0px); content-visibility: visible;"><defs><clipPath id="__lottie_element_123"><rect width="240" height="240" x="0" y="0"/></clipPath><clipPath id="__lottie_element_125"><path d="M0,0 L240,0 L240,240 L0,240z"/></clipPath><g id="__lottie_element_162"><g transform="matrix(1,0,0,1,120,120.03900146484375)" opacity="1" style="display: none;"><g opacity="1" transform="matrix(1,0,0,1,0,0)"><path stroke-linecap="round" stroke-linejoin="round" fill-opacity="0" class="primary" stroke="rgb(255,0,0)" stroke-opacity="1" stroke-width="20" d=" M0,-40.03900146484375 C0,-40.03900146484375 0,-40.03900146484375 0,-40.03900146484375 C-22.113000869750977,-40.03900146484375 -40.03900146484375,-22.113000869750977 -40.03900146484375,0 C-40.03900146484375,22.113000869750977 -22.113000869750977,40.03900146484375 0,40.03900146484375 C0,40.03900146484375 0,40.03900146484375 0,40.03900146484375 C22.113000869750977,40.03900146484375 40.03900146484375,22.113000869750977 40.03900146484375,0 C40.03900146484375,-22.113000869750977 22.113000869750977,-40.03900146484375 0,-40.03900146484375 C0,-40.03900146484375 0,-40.03900146484375 0,-40.03900146484375"/></g></g></g><filter id="__lottie_element_168" filterUnits="objectBoundingBox" x="0%" y="0%" width="100%" height="100%"><feComponentTransfer in="SourceGraphic"><feFuncA type="table" tableValues="1.0 0.0"/></feComponentTransfer></filter><mask id="__lottie_element_162_2" mask-type="alpha" maskUnits="userSpaceOnUse"><g filter="url(#__lottie_element_168)"><rect width="240" height="240" x="0" y="0" fill="#ffffff" opacity="0"/><use xmlns:ns1="http://www.w3.org/1999/xlink" ns1:href="#__lottie_element_162"/></g></mask></defs><g clip-path="url(#__lottie_element_123)"><g clip-path="url(#__lottie_element_125)" transform="matrix(1,0,0,1,0,0)" opacity="1" style="display: block;"><g mask="url(#__lottie_element_162_2)" style="display: none;"><g transform="matrix(1,0,0,1,120,120.01300048828125)" opacity="1"><path class="primary" fill="rgb(18,19,49)" fill-opacity="1" d=" M0,76.41899871826172 C46.5890007019043,76.41899871826172 84.00800323486328,42.1619987487793 97.5,0 C84.00788116455078,-40.871089935302734 46.5890007019043,-74.09942626953125 0,-74.09942626953125 C-46.5890007019043,-74.09942626953125 -84.00788116455078,-40.88624954223633 -97.5,0 C-84.00800323486328,42.1619987487793 -46.5890007019043,76.41899871826172 0,76.41899871826172z"/><g opacity="1" transform="matrix(1,0,0,1,0,0)"><path stroke-linecap="round" stroke-linejoin="round" fill-opacity="0" class="primary" stroke="rgb(18,19,49)" stroke-opacity="1" stroke-width="15" d=" M0,76.41899871826172 C46.5890007019043,76.41899871826172 84.00800323486328,42.1619987487793 97.5,0 C84.00788116455078,-40.871089935302734 46.5890007019043,-74.09942626953125 0,-74.09942626953125 C-46.5890007019043,-74.09942626953125 -84.00788116455078,-40.88624954223633 -97.5,0 C-84.00800323486328,42.1619987487793 -46.5890007019043,76.41899871826172 0,76.41899871826172z"/></g></g></g><g transform="matrix(1,0,0,1,120,120.01300048828125)" opacity="1" style="display: none;"><g opacity="1" transform="matrix(1,0,0,1,0,0)"><path stroke-linecap="round" stroke-linejoin="round" fill-opacity="0" class="primary" stroke="rgb(18,19,49)" stroke-opacity="1" stroke-width="15" d=" M0,76.41899871826172 C46.5890007019043,76.41899871826172 84.00800323486328,42.1619987487793 97.5,0 C84.00788116455078,-40.871089935302734 46.5890007019043,-74.09942626953125 0,-74.09942626953125 C-46.5890007019043,-74.09942626953125 -84.00788116455078,-40.88624954223633 -97.5,0 C-84.00800323486328,42.1619987487793 -46.5890007019043,76.41899871826172 0,76.41899871826172z"/></g></g><g transform="matrix(1,0,0,1,120,120.01300048828125)" opacity="1" style="display: none;"><g opacity="1" transform="matrix(1,0,0,1,0,0)"><path class="primary" fill="rgb(18,19,49)" fill-opacity="1" d=" M-50,-0.013000000268220901 C-50,-27.62700080871582 -27.61400032043457,-50.01300048828125 0,-50.01300048828125 C27.61400032043457,-50.01300048828125 50,-27.62700080871582 50,-0.013000000268220901 C50,27.60099983215332 27.61400032043457,49.98699951171875 0,49.98699951171875 C-27.61400032043457,49.98699951171875 -50,27.60099983215332 -50,-0.013000000268220901z M104.64399719238281,-2.2860000133514404 C90.37899780273438,-46.862998962402344 50.52199935913086,-83.91899871826172 0,-83.91899871826172 C-50.52199935913086,-83.91899871826172 -90.37899780273438,-46.862998962402344 -104.64399719238281,-2.2860000133514404 C-105.12000274658203,-0.7990000247955322 -105.12000274658203,0.7990000247955322 -104.64399719238281,2.2860000133514404 C-90.37899780273438,46.862998962402344 -50.52199935913086,83.91899871826172 0,83.91899871826172 C50.52199935913086,83.91899871826172 90.37899780273438,46.862998962402344 104.64399719238281,2.2860000133514404 C105.12000274658203,0.7990000247955322 105.12000274658203,-0.7990000247955322 104.64399719238281,-2.2860000133514404z M30,-0.013000000268220901 C30,-16.582000732421875 16.56800079345703,-30.01300048828125 0,-30.01300048828125 C-16.569000244140625,-30.01300048828125 -30,-16.582000732421875 -30,-0.013000000268220901 C-30,16.555999755859375 -16.569000244140625,29.98699951171875 0,29.98699951171875 C16.56800079345703,29.98699951171875 30,16.555999755859375 30,-0.013000000268220901z"/></g></g><g transform="matrix(1,0,0,1,120,120.01300048828125)" opacity="1" style="display: block;"><g opacity="1" transform="matrix(1,0,0,1,0,0)"><path class="primary" fill="rgb(18,19,49)" fill-opacity="1" d=" M-50,-0.013000000268220901 C-50,-27.62700080871582 -27.61400032043457,-50.01300048828125 0,-50.01300048828125 C27.61400032043457,-50.01300048828125 50,-27.62700080871582 50,-0.013000000268220901 C50,27.60099983215332 27.61400032043457,49.98699951171875 0,49.98699951171875 C-27.61400032043457,49.98699951171875 -50,27.60099983215332 -50,-0.013000000268220901z M104.64399719238281,-2.2860000133514404 C90.37899780273438,-46.862998962402344 50.52199935913086,-83.91899871826172 0,-83.91899871826172 C-50.52199935913086,-83.91899871826172 -90.37899780273438,-46.862998962402344 -104.64399719238281,-2.2860000133514404 C-105.12000274658203,-0.7990000247955322 -105.12000274658203,0.7990000247955322 -104.64399719238281,2.2860000133514404 C-90.37899780273438,46.862998962402344 -50.52199935913086,83.91899871826172 0,83.91899871826172 C50.52199935913086,83.91899871826172 90.37899780273438,46.862998962402344 104.64399719238281,2.2860000133514404 C105.12000274658203,0.7990000247955322 105.12000274658203,-0.7990000247955322 104.64399719238281,-2.2860000133514404z M30,-0.013000000268220901 C30,-16.582000732421875 16.56800079345703,-30.01300048828125 0,-30.01300048828125 C-16.569000244140625,-30.01300048828125 -30,-16.582000732421875 -30,-0.013000000268220901 C-30,16.555999755859375 -16.569000244140625,29.98699951171875 0,29.98699951171875 C16.56800079345703,29.98699951171875 30,16.555999755859375 30,-0.013000000268220901z"/></g></g></g></g></svg>