<svg xmlns="http://www.w3.org/2000/svg" xmlns:xlink="http://www.w3.org/1999/xlink" viewBox="0 0 240 240" width="240" height="240" preserveAspectRatio="xMidYMid meet" style="width: 100%; height: 100%; transform: translate3d(0px, 0px, 0px); content-visibility: visible;"><defs><clipPath id="__lottie_element_123"><rect width="240" height="240" x="0" y="0"/></clipPath><clipPath id="__lottie_element_125"><path d="M0,0 L240,0 L240,240 L0,240z"/></clipPath><g id="__lottie_element_162"><g transform="matrix(1,0,0,1,120,120.03900146484375)" opacity="1" style="display: none;"><g opacity="1" transform="matrix(1,0,0,1,0,0)"><path stroke-linecap="round" stroke-linejoin="round" fill-opacity="0" class="primary" stroke="rgb(255,0,0)" stroke-opacity="1" stroke-width="20" d=" M0,-40.03900146484375 C0,-40.03900146484375 0,-40.03900146484375 0,-40.03900146484375 C-22.113000869750977,-40.03900146484375 -40.03900146484375,-22.113000869750977 -40.03900146484375,0 C-40.03900146484375,22.113000869750977 -22.113000869750977,40.03900146484375 0,40.03900146484375 C0,40.03900146484375 0,40.03900146484375 0,40.03900146484375 C22.113000869750977,40.03900146484375 40.03900146484375,22.113000869750977 40.03900146484375,0 C40.03900146484375,-22.113000869750977 22.113000869750977,-40.03900146484375 0,-40.03900146484375 C0,-40.03900146484375 0,-40.03900146484375 0,-40.03900146484375"/></g></g></g><filter id="__lottie_element_168" filterUnits="objectBoundingBox" x="0%" y="0%" width="100%" height="100%"><feComponentTransfer in="SourceGraphic"><feFuncA type="table" tableValues="1.0 0.0"/></feComponentTransfer></filter><mask id="__lottie_element_162_2" mask-type="alpha" maskUnits="userSpaceOnUse"><g filter="url(#__lottie_element_168)"><rect width="240" height="240" x="0" y="0" fill="#ffffff" opacity="0"/><use xmlns:ns1="http://www.w3.org/1999/xlink" ns1:href="#__lottie_element_162"/></g></mask><clipPath id="__lottie_element_527"><path d="M0,0 L240,0 L240,240 L0,240z"/></clipPath><g id="__lottie_element_536"><g transform="matrix(1,0,0,1,120,82.03900146484375)" opacity="1" style="display: block;"><g opacity="1" transform="matrix(1,0,0,1,0,0)"><path stroke-linecap="round" stroke-linejoin="round" fill-opacity="0" class="primary" stroke="rgb(255,0,0)" stroke-opacity="1" stroke-width="20" d=" M0,-40.03900146484375 C0,-40.03900146484375 0,-40.03900146484375 0,-40.03900146484375 C-22.113000869750977,-40.03900146484375 -40.03900146484375,-22.113000869750977 -40.03900146484375,0 C-40.03900146484375,22.113000869750977 -22.113000869750977,40.03900146484375 0,40.03900146484375 C0,40.03900146484375 0,40.03900146484375 0,40.03900146484375 C22.113000869750977,40.03900146484375 40.03900146484375,22.113000869750977 40.03900146484375,0 C40.03900146484375,-22.113000869750977 22.113000869750977,-40.03900146484375 0,-40.03900146484375 C0,-40.03900146484375 0,-40.03900146484375 0,-40.03900146484375"/></g></g></g><filter id="__lottie_element_545" filterUnits="objectBoundingBox" x="0%" y="0%" width="100%" height="100%"><feComponentTransfer in="SourceGraphic"><feFuncA type="table" tableValues="1.0 0.0"/></feComponentTransfer></filter><mask id="__lottie_element_536_2" mask-type="alpha" maskUnits="userSpaceOnUse"><g filter="url(#__lottie_element_545)"><rect width="240" height="240" x="0" y="0" fill="#ffffff" opacity="0"/><use xmlns:ns2="http://www.w3.org/1999/xlink" ns2:href="#__lottie_element_536"/></g></mask><clipPath id="__lottie_element_547"><path d="M0,0 L240,0 L240,240 L0,240z"/></clipPath><clipPath id="__lottie_element_551"><path d="M0,0 L240,0 L240,240 L0,240z"/></clipPath><g id="__lottie_element_554"><g style="display: block;" transform="matrix(1,0,0,1,123.2969970703125,116.70500183105469)" opacity="1"><g opacity="1" transform="matrix(1,0,0,1,0,0)"><path fill="rgb(255,255,255)" fill-opacity="1" d=" M-106.70500183105469,-100.11499786376953 C-97.91799926757812,-108.9020004272461 -83.6719970703125,-108.9020004272461 -74.88500213623047,-100.11499786376953 C-74.88500213623047,-100.11499786376953 100.11499786376953,74.88500213623047 100.11499786376953,74.88500213623047 C108.9020004272461,83.6719970703125 108.9020004272461,97.91799926757812 100.11499786376953,106.70500183105469 C100.11499786376953,106.70500183105469 -106.70500183105469,-100.11499786376953 -106.70500183105469,-100.11499786376953z"/></g></g></g><filter id="__lottie_element_557" filterUnits="objectBoundingBox" x="0%" y="0%" width="100%" height="100%"><feComponentTransfer in="SourceGraphic"><feFuncA type="table" tableValues="1.0 0.0"/></feComponentTransfer></filter><mask id="__lottie_element_554_2" mask-type="alpha" maskUnits="userSpaceOnUse"><g filter="url(#__lottie_element_557)"><rect width="240" height="240" x="0" y="0" fill="#ffffff" opacity="0"/><use xmlns:ns3="http://www.w3.org/1999/xlink" ns3:href="#__lottie_element_554"/></g></mask><g id="__lottie_element_1043"><g transform="matrix(1,0,0,1,123.2969970703125,116.70500183105469)" opacity="1" style="display: block;"><g opacity="1" transform="matrix(1,0,0,1,0,0)"><path fill="rgb(255,255,255)" fill-opacity="1" d=" M-106.70500183105469,-100.11499786376953 C-97.91799926757812,-108.9020004272461 -83.6719970703125,-108.9020004272461 -74.88500213623047,-100.11499786376953 C-74.88500213623047,-100.11499786376953 100.11499786376953,74.88500213623047 100.11499786376953,74.88500213623047 C108.9020004272461,83.6719970703125 108.9020004272461,97.91799926757812 100.11499786376953,106.70500183105469 C100.11499786376953,106.70500183105469 -106.70500183105469,-100.11499786376953 -106.70500183105469,-100.11499786376953z"/></g></g></g><filter id="__lottie_element_1046" filterUnits="objectBoundingBox" x="0%" y="0%" width="100%" height="100%"><feComponentTransfer in="SourceGraphic"><feFuncA type="table" tableValues="1.0 0.0"/></feComponentTransfer></filter><mask id="__lottie_element_1043_2" mask-type="alpha" maskUnits="userSpaceOnUse"><g filter="url(#__lottie_element_1046)"><rect width="240" height="240" x="0" y="0" fill="#ffffff" opacity="0"/><use xmlns:ns4="http://www.w3.org/1999/xlink" ns4:href="#__lottie_element_1043"/></g></mask><g id="__lottie_element_1050"><g transform="matrix(1,0,0,1,120,120.03900146484375)" opacity="1" style="display: none;"><g opacity="1" transform="matrix(1,0,0,1,0,0)"><path stroke-linecap="round" stroke-linejoin="round" fill-opacity="0" class="primary" stroke="rgb(255,0,0)" stroke-opacity="1" stroke-width="20" d=" M0,-64.0459976196289 C0,-64.0459976196289 0,-64.0459976196289 0,-64.0459976196289 C-35.371315002441406,-64.04598236083984 -64.04598236083984,-35.371315002441406 -64.04598236083984,0 C-64.04598236083984,35.371315002441406 -35.371315002441406,64.04598236083984 0,64.04598236083984 C0,64.04598236083984 0,64.04598236083984 0,64.04598236083984 C35.371315002441406,64.04598236083984 64.04598236083984,35.371315002441406 64.04598236083984,0 C64.04598236083984,-35.371315002441406 35.371315002441406,-64.04598236083984 0,-64.04598236083984 C0,-64.0459976196289 0,-64.0459976196289 0,-64.0459976196289"/></g></g></g><filter id="__lottie_element_1056" filterUnits="objectBoundingBox" x="0%" y="0%" width="100%" height="100%"><feComponentTransfer in="SourceGraphic"><feFuncA type="table" tableValues="1.0 0.0"/></feComponentTransfer></filter><mask id="__lottie_element_1050_2" mask-type="alpha" maskUnits="userSpaceOnUse"><g filter="url(#__lottie_element_1056)"><rect width="240" height="240" x="0" y="0" fill="#ffffff" opacity="0"/><use xmlns:ns5="http://www.w3.org/1999/xlink" ns5:href="#__lottie_element_1050"/></g></mask><g id="__lottie_element_1060"><g transform="matrix(1,0,0,1,120,120.03900146484375)" opacity="1" style="display: none;"><path fill="rgb(255,0,0)" fill-opacity="1" d=" M0,-40.04199981689453 C0,-40.04199981689453 0,-40.04199981689453 0,-40.04199981689453 C-22.11458396911621,-40.041866302490234 -40.041866302490234,-22.11458396911621 -40.041866302490234,0 C-40.041866302490234,22.11458396911621 -22.11458396911621,40.041866302490234 0,40.041866302490234 C0,40.041866302490234 0,40.041866302490234 0,40.041866302490234 C22.11458396911621,40.041866302490234 40.041866302490234,22.11458396911621 40.041866302490234,0 C40.041866302490234,-22.11458396911621 22.11458396911621,-40.041866302490234 0,-40.041866302490234 C0,-40.04199981689453 0,-40.04199981689453 0,-40.04199981689453"/><g opacity="1" transform="matrix(1,0,0,1,0,0)"><path stroke-linecap="round" stroke-linejoin="round" fill-opacity="0" class="primary" stroke="rgb(255,0,0)" stroke-opacity="1" stroke-width="20" d=" M0,-40.04199981689453 C0,-40.04199981689453 0,-40.04199981689453 0,-40.04199981689453 C-22.11458396911621,-40.041866302490234 -40.041866302490234,-22.11458396911621 -40.041866302490234,0 C-40.041866302490234,22.11458396911621 -22.11458396911621,40.041866302490234 0,40.041866302490234 C0,40.041866302490234 0,40.041866302490234 0,40.041866302490234 C22.11458396911621,40.041866302490234 40.041866302490234,22.11458396911621 40.041866302490234,0 C40.041866302490234,-22.11458396911621 22.11458396911621,-40.041866302490234 0,-40.041866302490234 C0,-40.04199981689453 0,-40.04199981689453 0,-40.04199981689453"/></g></g></g><g id="__lottie_element_1066"><g transform="matrix(1,0,0,1,120,120.01300048828125)" opacity="1" style="display: none;"><path class="primary" fill="rgb(18,19,49)" fill-opacity="1" d=" M0,76.41899871826172 C46.5890007019043,76.41899871826172 84.00800323486328,42.1619987487793 97.5,0 C84.00799560546875,-42.150699615478516 46.5890007019043,-76.39869689941406 0,-76.39869689941406 C-46.5890007019043,-76.39869689941406 -84.00799560546875,-42.15083312988281 -97.5,0 C-84.00800323486328,42.1619987487793 -46.5890007019043,76.41899871826172 0,76.41899871826172z"/><g opacity="1" transform="matrix(1,0,0,1,0,0)"><path stroke-linecap="round" stroke-linejoin="round" fill-opacity="0" class="primary" stroke="rgb(18,19,49)" stroke-opacity="1" stroke-width="15" d=" M0,76.41899871826172 C46.5890007019043,76.41899871826172 84.00800323486328,42.1619987487793 97.5,0 C84.00799560546875,-42.150699615478516 46.5890007019043,-76.39869689941406 0,-76.39869689941406 C-46.5890007019043,-76.39869689941406 -84.00799560546875,-42.15083312988281 -97.5,0 C-84.00800323486328,42.1619987487793 -46.5890007019043,76.41899871826172 0,76.41899871826172z"/></g></g></g><mask id="__lottie_element_1066_1" mask-type="alpha"><use xmlns:ns6="http://www.w3.org/1999/xlink" ns6:href="#__lottie_element_1066"/></mask><filter id="__lottie_element_1069" filterUnits="objectBoundingBox" x="0%" y="0%" width="100%" height="100%"><feComponentTransfer in="SourceGraphic"><feFuncA type="table" tableValues="1.0 0.0"/></feComponentTransfer></filter><mask id="__lottie_element_1060_2" mask-type="alpha" maskUnits="userSpaceOnUse"><g filter="url(#__lottie_element_1069)"><rect width="240" height="240" x="0" y="0" fill="#ffffff" opacity="0"/><use xmlns:ns7="http://www.w3.org/1999/xlink" ns7:href="#__lottie_element_1060"/></g></mask></defs><g clip-path="url(#__lottie_element_123)"><g class="5" clip-path="url(#__lottie_element_527)" transform="matrix(1,0,0,1,0,0)" opacity="1" style="display: none;"><g mask="url(#__lottie_element_536_2)" style="display: block;"><g transform="matrix(1,0,0,1,120,82.01300048828125)" opacity="1"><path class="primary" fill="rgb(18,19,49)" fill-opacity="1" d=" M-0.06400000303983688,76.31199645996094 C39.441001892089844,76.31199645996094 71.53099822998047,50.86199951171875 86.97799682617188,23.374000549316406 C71.53099822998047,50.86199951171875 39.441001892089844,76.4219970703125 -0.06400000303983688,76.4219970703125 C-39.569000244140625,76.4219970703125 -70.23100280761719,52.013999938964844 -87.19000244140625,23.229999542236328 C-70.18599700927734,51.85499954223633 -39.569000244140625,76.31199645996094 -0.06400000303983688,76.31199645996094z"/><g opacity="1" transform="matrix(1,0,0,1,0,0)"><path stroke-linecap="round" stroke-linejoin="round" fill-opacity="0" class="primary" stroke="rgb(18,19,49)" stroke-opacity="1" stroke-width="15" d=" M-0.06400000303983688,76.31199645996094 C39.441001892089844,76.31199645996094 71.53099822998047,50.86199951171875 86.97799682617188,23.374000549316406 C71.53099822998047,50.86199951171875 39.441001892089844,76.4219970703125 -0.06400000303983688,76.4219970703125 C-39.569000244140625,76.4219970703125 -70.23100280761719,52.013999938964844 -87.19000244140625,23.229999542236328 C-70.18599700927734,51.85499954223633 -39.569000244140625,76.31199645996094 -0.06400000303983688,76.31199645996094z"/></g></g></g><g transform="matrix(1,0,0,1,120,82.01300048828125)" opacity="1" style="display: block;"><g opacity="1" transform="matrix(1,0,0,1,0,0)"><path stroke-linecap="round" stroke-linejoin="round" fill-opacity="0" class="primary" stroke="rgb(18,19,49)" stroke-opacity="1" stroke-width="15" d=" M-0.06400000303983688,76.31199645996094 C39.441001892089844,76.31199645996094 71.53099822998047,50.86199951171875 86.97799682617188,23.374000549316406 C71.53099822998047,50.86199951171875 39.441001892089844,76.4219970703125 -0.06400000303983688,76.4219970703125 C-39.569000244140625,76.4219970703125 -70.23100280761719,52.013999938964844 -87.19000244140625,23.229999542236328 C-70.18599700927734,51.85499954223633 -39.569000244140625,76.31199645996094 -0.06400000303983688,76.31199645996094z"/></g></g><g transform="matrix(1,0,0,1,120,112.0009994506836)" opacity="1" style="display: block;"><g opacity="1" transform="matrix(1,0,0,1,0,0)"><path class="primary" fill="rgb(18,19,49)" fill-opacity="1" d=" M94.11699676513672,-10.904999732971191 C75.23699951171875,-43.98400115966797 41.12300109863281,-68.60399627685547 0,-68.60399627685547 C-41.12300109863281,-68.60399627685547 -75.23699951171875,-43.98400115966797 -94.11699676513672,-10.904999732971191 C-95.43199920654297,-8.60099983215332 -95.43199920654297,-5.77400016784668 -94.11699676513672,-3.4700000286102295 C-75.23699951171875,29.608999252319336 -41.12300109863281,54.229000091552734 0,54.229000091552734 C41.12300109863281,54.229000091552734 75.23799896240234,29.608999252319336 94.11699676513672,-3.4700000286102295 C95.43199920654297,-5.77400016784668 95.43199920654297,-8.60099983215332 94.11699676513672,-10.904999732971191z"/></g></g><g transform="matrix(1,0,0,1,120,165.20599365234375)" opacity="1" style="display: block;"><g opacity="1" transform="matrix(1,0,0,1,0,0)"><path class="primary" fill="rgb(18,19,49)" fill-opacity="1" d=" M68.68199920654297,-36.441001892089844 C64.947998046875,-38.23400115966797 60.46799850463867,-36.6609992980957 58.67499923706055,-32.926998138427734 C56.88199996948242,-29.19300079345703 58.45500183105469,-24.71299934387207 62.18899917602539,-22.920000076293945 C62.18899917602539,-22.920000076293945 76.1510009765625,-16.28499984741211 76.1510009765625,-16.28499984741211 C79.88500213623047,-14.491999626159668 84.36599731445312,-16.065000534057617 86.15899658203125,-19.798999786376953 C87.9520034790039,-23.533000946044922 86.37899780273438,-28.01300048828125 82.64600372314453,-29.805999755859375 C82.64600372314453,-29.805999755859375 68.68199920654297,-36.441001892089844 68.68199920654297,-36.441001892089844z M-59.15599822998047,-34.05799865722656 C-60.87900161743164,-37.82500076293945 -65.3290023803711,-39.481998443603516 -69.09600067138672,-37.75899887084961 C-69.09600067138672,-37.75899887084961 -83.78500366210938,-30.908000946044922 -83.78500366210938,-30.908000946044922 C-87.552001953125,-29.184999465942383 -89.20899963378906,-24.736000061035156 -87.48600006103516,-20.9689998626709 C-85.76300048828125,-17.20199966430664 -81.31300354003906,-15.545000076293945 -77.5459976196289,-17.26799964904785 C-77.5459976196289,-17.26799964904785 -62.856998443603516,-24.118000030517578 -62.856998443603516,-24.118000030517578 C-59.09000015258789,-25.840999603271484 -57.43299865722656,-30.291000366210938 -59.15599822998047,-34.05799865722656z M30.826000213623047,-12.873000144958496 C29.003999710083008,-16.591999053955078 24.51099967956543,-18.131000518798828 20.791000366210938,-16.30900001525879 C17.070999145507812,-14.487000465393066 15.532999992370605,-9.994000434875488 17.354999542236328,-6.27400016784668 C17.354999542236328,-6.27400016784668 22.861000061035156,5.184000015258789 22.861000061035156,5.184000015258789 C24.683000564575195,8.904000282287598 29.176000595092773,10.442000389099121 32.895999908447266,8.619999885559082 C36.61600112915039,6.797999858856201 38.15299987792969,2.305000066757202 36.33100128173828,-1.4149999618530273 C36.33100128173828,-1.4149999618530273 30.826000213623047,-12.873000144958496 30.826000213623047,-12.873000144958496z M-22.78499984741211,-16.027000427246094 C-26.493999481201172,-17.871999740600586 -30.9950008392334,-16.361000061035156 -32.84000015258789,-12.652000427246094 C-32.84000015258789,-12.652000427246094 -38.32899856567383,-1.2899999618530273 -38.32899856567383,-1.2899999618530273 C-40.17300033569336,2.4189999103546143 -38.6619987487793,6.920000076293945 -34.952999114990234,8.765000343322754 C-31.243999481201172,10.609999656677246 -26.743000030517578,9.097999572753906 -24.898000717163086,5.388999938964844 C-24.898000717163086,5.388999938964844 -19.40999984741211,-5.9720001220703125 -19.40999984741211,-5.9720001220703125 C-17.56599998474121,-9.680999755859375 -19.076000213623047,-14.182000160217285 -22.78499984741211,-16.027000427246094z"/></g></g></g><g class="5" clip-path="url(#__lottie_element_547)" transform="matrix(1,0,0,1,0,0)" opacity="1" style="display: block;"><g mask="url(#__lottie_element_554_2)" style="display: block;"><g clip-path="url(#__lottie_element_551)" transform="matrix(1,0,0,1,0,0)" opacity="1"><g mask="url(#__lottie_element_1060_2)" style="display: none;"><g transform="matrix(1,0,0,1,120,120.01300048828125)" opacity="1"><path class="primary" fill="rgb(18,19,49)" fill-opacity="1" d=" M0,76.41899871826172 C46.5890007019043,76.41899871826172 84.00800323486328,42.1619987487793 97.5,0 C84.00799560546875,-42.150699615478516 46.5890007019043,-76.39869689941406 0,-76.39869689941406 C-46.5890007019043,-76.39869689941406 -84.00799560546875,-42.15083312988281 -97.5,0 C-84.00800323486328,42.1619987487793 -46.5890007019043,76.41899871826172 0,76.41899871826172z"/><g opacity="1" transform="matrix(1,0,0,1,0,0)"><path stroke-linecap="round" stroke-linejoin="round" fill-opacity="0" class="primary" stroke="rgb(18,19,49)" stroke-opacity="1" stroke-width="15" d=" M0,76.41899871826172 C46.5890007019043,76.41899871826172 84.00800323486328,42.1619987487793 97.5,0 C84.00799560546875,-42.150699615478516 46.5890007019043,-76.39869689941406 0,-76.39869689941406 C-46.5890007019043,-76.39869689941406 -84.00799560546875,-42.15083312988281 -97.5,0 C-84.00800323486328,42.1619987487793 -46.5890007019043,76.41899871826172 0,76.41899871826172z"/></g></g></g><g mask="url(#__lottie_element_1050_2)" style="display: none;"><g transform="matrix(1,0,0,1,120,120.01300048828125)" opacity="1"><path class="primary" fill="rgb(18,19,49)" fill-opacity="1" d=" M0,76.41899871826172 C46.5890007019043,76.41899871826172 84.00800323486328,42.1619987487793 97.5,0 C84.00006866455078,42.23714065551758 46.5890007019043,75.2336196899414 0,75.2336196899414 C-46.5890007019043,75.2336196899414 -84.00006866455078,41.245948791503906 -97.5,0 C-84.00800323486328,42.1619987487793 -46.5890007019043,76.41899871826172 0,76.41899871826172z"/><g opacity="1" transform="matrix(1,0,0,1,0,0)"><path stroke-linecap="round" stroke-linejoin="round" fill-opacity="0" class="primary" stroke="rgb(18,19,49)" stroke-opacity="1" stroke-width="15" d=" M0,76.41899871826172 C46.5890007019043,76.41899871826172 84.00800323486328,42.1619987487793 97.5,0 C84.00006866455078,42.23714065551758 46.5890007019043,75.2336196899414 0,75.2336196899414 C-46.5890007019043,75.2336196899414 -84.00006866455078,41.245948791503906 -97.5,0 C-84.00800323486328,42.1619987487793 -46.5890007019043,76.41899871826172 0,76.41899871826172z"/></g></g></g><g transform="matrix(1,0,0,1,120,120.01300048828125)" opacity="1" style="display: none;"><g opacity="1" transform="matrix(1,0,0,1,0,0)"><path stroke-linecap="round" stroke-linejoin="round" fill-opacity="0" class="primary" stroke="rgb(18,19,49)" stroke-opacity="1" stroke-width="15" d=" M0,76.41899871826172 C46.5890007019043,76.41899871826172 84.00800323486328,42.1619987487793 97.5,0 C84.00799560546875,-42.150699615478516 46.5890007019043,-76.39869689941406 0,-76.39869689941406 C-46.5890007019043,-76.39869689941406 -84.00799560546875,-42.15083312988281 -97.5,0 C-84.00800323486328,42.1619987487793 -46.5890007019043,76.41899871826172 0,76.41899871826172z"/></g></g><g transform="matrix(1,0,0,1,120,120.01300048828125)" opacity="1" style="display: none;"><g opacity="1" transform="matrix(1,0,0,1,0,0)"><path class="primary" fill="rgb(18,19,49)" fill-opacity="1" d=" M-50,-0.013000000268220901 C-50,-27.62700080871582 -27.61400032043457,-50.01300048828125 0,-50.01300048828125 C27.61400032043457,-50.01300048828125 50,-27.62700080871582 50,-0.013000000268220901 C50,27.60099983215332 27.61400032043457,49.98699951171875 0,49.98699951171875 C-27.61400032043457,49.98699951171875 -50,27.60099983215332 -50,-0.013000000268220901z M104.64399719238281,-2.2860000133514404 C90.37899780273438,-46.862998962402344 50.52199935913086,-83.91899871826172 0,-83.91899871826172 C-50.52199935913086,-83.91899871826172 -90.37899780273438,-46.862998962402344 -104.64399719238281,-2.2860000133514404 C-105.12000274658203,-0.7990000247955322 -105.12000274658203,0.7990000247955322 -104.64399719238281,2.2860000133514404 C-90.37899780273438,46.862998962402344 -50.52199935913086,83.91899871826172 0,83.91899871826172 C50.52199935913086,83.91899871826172 90.37899780273438,46.862998962402344 104.64399719238281,2.2860000133514404 C105.12000274658203,0.7990000247955322 105.12000274658203,-0.7990000247955322 104.64399719238281,-2.2860000133514404z M30,-0.013000000268220901 C30,-16.582000732421875 16.56800079345703,-30.01300048828125 0,-30.01300048828125 C-16.569000244140625,-30.01300048828125 -30,-16.582000732421875 -30,-0.013000000268220901 C-30,16.555999755859375 -16.569000244140625,29.98699951171875 0,29.98699951171875 C16.56800079345703,29.98699951171875 30,16.555999755859375 30,-0.013000000268220901z"/></g></g><g mask="url(#__lottie_element_1066_1)" style="display: block;"><g transform="matrix(1,0,0,1,116.66400146484375,123.4520034790039)" opacity="1"><g opacity="1" transform="matrix(1,0,0,1,0,0)"><path class="primary" fill="rgb(18,19,49)" fill-opacity="1" d=" M-16.05699920654297,-26.56599998474121 C-10.286999702453613,-20.76099967956543 17.44700050354004,6.48199987411499 26.660999298095703,15.847999572753906 C23.98200035095215,18.902000427246094 18.554000854492188,22.367000579833984 18.554000854492188,22.367000579833984 C14.090999603271484,25.009000778198242 8.907999992370605,26.565000534057617 3.3489999771118164,26.56599998474121 C-13.21500015258789,26.565000534057617 -26.655000686645508,13.128999710083008 -26.660999298095703,-3.434000015258789 C-26.660999298095703,-8.998000144958496 -25.12299919128418,-14.197999954223633 -22.481000900268555,-18.667999267578125 C-22.481000900268555,-18.667999267578125 -20.2450008392334,-22.225000381469727 -16.05699920654297,-26.56599998474121z"/></g></g></g></g></g><g transform="matrix(1,0,0,1,120,120)" opacity="1" style="display: none;"><g opacity="1" transform="matrix(1,0,0,1,0,0)"><path stroke-linecap="round" stroke-linejoin="miter" fill-opacity="0" stroke-miterlimit="4" class="primary" stroke="rgb(18,19,49)" stroke-opacity="1" stroke-width="15" d=" M87.5,87.5 C87.5,87.5 -87.5,-87.5 -87.5,-87.5"/></g></g><g transform="matrix(1,0,0,1,120.01200103759766,119.9990005493164)" opacity="1" style="display: block;"><g opacity="1" transform="matrix(1,0,0,1,0,0)"><path class="primary" fill="rgb(18,19,49)" fill-opacity="1" d=" M104.63700103759766,-2.2739999294281006 C90.37200164794922,-46.847999572753906 50.51499938964844,-83.9219970703125 -0.0020000000949949026,-83.92500305175781 C-15.347999572753906,-83.92500305175781 -29.708999633789062,-80.49199676513672 -42.667999267578125,-74.48100280761719 C-42.667999267578125,-74.48100280761719 -15.666999816894531,-47.479000091552734 -15.666999816894531,-47.479000091552734 C-10.73900032043457,-49.10300064086914 -5.4730000495910645,-49.98899841308594 -0.0020000000949949026,-49.98899841308594 C27.60700035095215,-49.98400115966797 49.99800109863281,-27.59000015258789 49.99800109863281,0.020999999716877937 C49.99599838256836,5.486999988555908 49.10100173950195,10.741999626159668 47.479000091552734,15.664999961853027 C47.479000091552734,15.664999961853027 79.01200103759766,47.19900131225586 79.01200103759766,47.19900131225586 C90.54900360107422,34.25600051879883 99.35600280761719,18.79599952697754 104.63700103759766,2.2960000038146973 C105.11100006103516,0.8140000104904175 105.10900115966797,-0.7919999957084656 104.63700103759766,-2.2739999294281006z M-50.007999420166016,0.01899999938905239 C-50.007999420166016,-11.085000038146973 -46.39799880981445,-21.356000900268555 -40.27199935913086,-29.658000946044922 C-40.27199935913086,-29.658000946044922 -25.827999114990234,-15.21500015258789 -25.827999114990234,-15.21500015258789 C-28.4689998626709,-10.744999885559082 -30.007999420166016,-5.545000076293945 -30.007999420166016,0.01899999938905239 C-30.003000259399414,16.582000732421875 -16.562000274658203,30.01799964904785 0.0020000000949949026,30.018999099731445 C5.560999870300293,30.01799964904785 10.744000434875488,28.46299934387207 15.206999778747559,25.820999145507812 C15.206999778747559,25.820999145507812 29.650999069213867,40.263999938964844 29.650999069213867,40.263999938964844 C21.354999542236328,46.388999938964844 11.10200023651123,50.016998291015625 0.0020000000949949026,50.01900100708008 C-27.60700035095215,50.016998291015625 -50.00299835205078,27.628000259399414 -50.007999420166016,0.01899999938905239z M-82.20600128173828,-92.802001953125 C-85.13500213623047,-95.7300033569336 -89.88200378417969,-95.73100280761719 -92.81099700927734,-92.802001953125 C-95.73699951171875,-89.87300109863281 -95.73799896240234,-85.125 -92.81099700927734,-82.1969985961914 C-92.81099700927734,-82.1969985961914 -68.35700225830078,-57.74399948120117 -68.35700225830078,-57.74399948120117 C-85.19400024414062,-43.104000091552734 -97.8290023803711,-23.54599952697754 -104.63600158691406,-2.2750000953674316 C-105.10900115966797,-0.7919999957084656 -105.11000061035156,0.8109999895095825 -104.63600158691406,2.2950000762939453 C-90.36799621582031,46.867000579833984 -50.51599884033203,83.93499755859375 0.0020000000949949026,83.93499755859375 C20.952999114990234,83.93399810791016 40.05500030517578,77.53099822998047 56.270999908447266,66.88500213623047 C56.270999908447266,66.88500213623047 82.18900299072266,92.8030014038086 82.18900299072266,92.8030014038086 C85.11699676513672,95.73100280761719 89.86499786376953,95.7300033569336 92.79399871826172,92.8030014038086 C95.7229995727539,89.8740005493164 95.7229995727539,85.12699890136719 92.79399871826172,82.197998046875 C92.79399871826172,82.197998046875 -82.20600128173828,-92.802001953125 -82.20600128173828,-92.802001953125z"/></g></g><g mask="url(#__lottie_element_1043_2)" style="display: none;"><g transform="matrix(1,0,0,1,120,120.01300048828125)" opacity="1"><g opacity="1" transform="matrix(1,0,0,1,0,0)"><path stroke-linecap="round" stroke-linejoin="round" fill-opacity="0" class="primary" stroke="rgb(18,19,49)" stroke-opacity="1" stroke-width="15" d=" M0,76.41899871826172 C46.5890007019043,76.41899871826172 84.00800323486328,42.1619987487793 97.5,0 C84.00799560546875,-42.150699615478516 46.5890007019043,-76.39869689941406 0,-76.39869689941406 C-46.5890007019043,-76.39869689941406 -84.00799560546875,-42.15083312988281 -97.5,0 C-84.00800323486328,42.1619987487793 -46.5890007019043,76.41899871826172 0,76.41899871826172z"/></g></g></g></g><g clip-path="url(#__lottie_element_125)" transform="matrix(1,0,0,1,0,0)" opacity="1" style="display: none;"><g mask="url(#__lottie_element_162_2)" style="display: none;"><g transform="matrix(1,0,0,1,120,120.01300048828125)" opacity="1"><path class="primary" fill="rgb(18,19,49)" fill-opacity="1" d=" M0,76.41899871826172 C46.5890007019043,76.41899871826172 84.00800323486328,42.1619987487793 97.5,0 C84.00788116455078,-40.871089935302734 46.5890007019043,-74.09942626953125 0,-74.09942626953125 C-46.5890007019043,-74.09942626953125 -84.00788116455078,-40.88624954223633 -97.5,0 C-84.00800323486328,42.1619987487793 -46.5890007019043,76.41899871826172 0,76.41899871826172z"/><g opacity="1" transform="matrix(1,0,0,1,0,0)"><path stroke-linecap="round" stroke-linejoin="round" fill-opacity="0" class="primary" stroke="rgb(18,19,49)" stroke-opacity="1" stroke-width="15" d=" M0,76.41899871826172 C46.5890007019043,76.41899871826172 84.00800323486328,42.1619987487793 97.5,0 C84.00788116455078,-40.871089935302734 46.5890007019043,-74.09942626953125 0,-74.09942626953125 C-46.5890007019043,-74.09942626953125 -84.00788116455078,-40.88624954223633 -97.5,0 C-84.00800323486328,42.1619987487793 -46.5890007019043,76.41899871826172 0,76.41899871826172z"/></g></g></g><g transform="matrix(1,0,0,1,120,120.01300048828125)" opacity="1" style="display: none;"><g opacity="1" transform="matrix(1,0,0,1,0,0)"><path stroke-linecap="round" stroke-linejoin="round" fill-opacity="0" class="primary" stroke="rgb(18,19,49)" stroke-opacity="1" stroke-width="15" d=" M0,76.41899871826172 C46.5890007019043,76.41899871826172 84.00800323486328,42.1619987487793 97.5,0 C84.00788116455078,-40.871089935302734 46.5890007019043,-74.09942626953125 0,-74.09942626953125 C-46.5890007019043,-74.09942626953125 -84.00788116455078,-40.88624954223633 -97.5,0 C-84.00800323486328,42.1619987487793 -46.5890007019043,76.41899871826172 0,76.41899871826172z"/></g></g><g transform="matrix(1,0,0,1,120,120.01300048828125)" opacity="1" style="display: none;"><g opacity="1" transform="matrix(1,0,0,1,0,0)"><path class="primary" fill="rgb(18,19,49)" fill-opacity="1" d=" M-50,-0.013000000268220901 C-50,-27.62700080871582 -27.61400032043457,-50.01300048828125 0,-50.01300048828125 C27.61400032043457,-50.01300048828125 50,-27.62700080871582 50,-0.013000000268220901 C50,27.60099983215332 27.61400032043457,49.98699951171875 0,49.98699951171875 C-27.61400032043457,49.98699951171875 -50,27.60099983215332 -50,-0.013000000268220901z M104.64399719238281,-2.2860000133514404 C90.37899780273438,-46.862998962402344 50.52199935913086,-83.91899871826172 0,-83.91899871826172 C-50.52199935913086,-83.91899871826172 -90.37899780273438,-46.862998962402344 -104.64399719238281,-2.2860000133514404 C-105.12000274658203,-0.7990000247955322 -105.12000274658203,0.7990000247955322 -104.64399719238281,2.2860000133514404 C-90.37899780273438,46.862998962402344 -50.52199935913086,83.91899871826172 0,83.91899871826172 C50.52199935913086,83.91899871826172 90.37899780273438,46.862998962402344 104.64399719238281,2.2860000133514404 C105.12000274658203,0.7990000247955322 105.12000274658203,-0.7990000247955322 104.64399719238281,-2.2860000133514404z M30,-0.013000000268220901 C30,-16.582000732421875 16.56800079345703,-30.01300048828125 0,-30.01300048828125 C-16.569000244140625,-30.01300048828125 -30,-16.582000732421875 -30,-0.013000000268220901 C-30,16.555999755859375 -16.569000244140625,29.98699951171875 0,29.98699951171875 C16.56800079345703,29.98699951171875 30,16.555999755859375 30,-0.013000000268220901z"/></g></g><g transform="matrix(1,0,0,1,120,120.01300048828125)" opacity="1" style="display: block;"><g opacity="1" transform="matrix(1,0,0,1,0,0)"><path class="primary" fill="rgb(18,19,49)" fill-opacity="1" d=" M-50,-0.013000000268220901 C-50,-27.62700080871582 -27.61400032043457,-50.01300048828125 0,-50.01300048828125 C27.61400032043457,-50.01300048828125 50,-27.62700080871582 50,-0.013000000268220901 C50,27.60099983215332 27.61400032043457,49.98699951171875 0,49.98699951171875 C-27.61400032043457,49.98699951171875 -50,27.60099983215332 -50,-0.013000000268220901z M104.64399719238281,-2.2860000133514404 C90.37899780273438,-46.862998962402344 50.52199935913086,-83.91899871826172 0,-83.91899871826172 C-50.52199935913086,-83.91899871826172 -90.37899780273438,-46.862998962402344 -104.64399719238281,-2.2860000133514404 C-105.12000274658203,-0.7990000247955322 -105.12000274658203,0.7990000247955322 -104.64399719238281,2.2860000133514404 C-90.37899780273438,46.862998962402344 -50.52199935913086,83.91899871826172 0,83.91899871826172 C50.52199935913086,83.91899871826172 90.37899780273438,46.862998962402344 104.64399719238281,2.2860000133514404 C105.12000274658203,0.7990000247955322 105.12000274658203,-0.7990000247955322 104.64399719238281,-2.2860000133514404z M30,-0.013000000268220901 C30,-16.582000732421875 16.56800079345703,-30.01300048828125 0,-30.01300048828125 C-16.569000244140625,-30.01300048828125 -30,-16.582000732421875 -30,-0.013000000268220901 C-30,16.555999755859375 -16.569000244140625,29.98699951171875 0,29.98699951171875 C16.56800079345703,29.98699951171875 30,16.555999755859375 30,-0.013000000268220901z"/></g></g></g></g></svg>