<svg xmlns="http://www.w3.org/2000/svg" xmlns:xlink="http://www.w3.org/1999/xlink" viewBox="0 0 430 430" width="430" height="430" preserveAspectRatio="xMidYMid meet" style="width: 100%; height: 100%; transform: translate3d(0px, 0px, 0px); content-visibility: visible;"><defs><clipPath id="__lottie_element_2090"><rect width="430" height="430" x="0" y="0"/></clipPath><clipPath id="__lottie_element_2092"><path d="M0,0 L430,0 L430,430 L0,430z"/></clipPath></defs><g clip-path="url(#__lottie_element_2090)"><g clip-path="url(#__lottie_element_2092)" transform="matrix(1,0,0,1,0,0)" opacity="1" style="display: block;"><g transform="matrix(1,0,0,1,215,232)" opacity="1" style="display: block;"><g opacity="1" transform="matrix(1,0,0,1,0.28299999237060547,-107.09400177001953)"><path stroke-linecap="round" stroke-linejoin="round" fill-opacity="0" class="secondary" stroke="rgb(9,92,20)" stroke-opacity="1" stroke-width="20" d=" M-85.20800018310547,59.2130012512207 C-85.20800018310547,47.13100051879883 -85.20800018310547,1.3890000581741333 -85.20800018310547,1.3890000581741333 C-85.20800018310547,-46.143001556396484 -47.159000396728516,-84.67500305175781 -0.2240000069141388,-84.67500305175781 C46.71099853515625,-84.67500305175781 84.76000213623047,-46.143001556396484 84.76000213623047,1.3890000581741333 C84.76000213623047,1.3890000581741333 84.76000213623047,1.3890000581741333 84.76000213623047,1.3890000581741333 C84.76000213623047,1.3890000581741333 84.76000213623047,50.194000244140625 84.76000213623047,60.29499816894531"/></g></g><g transform="matrix(1,0,0,1,215,285)" opacity="1" style="display: block;"><path class="primary" fill="rgb(21,198,45)" fill-opacity="1" d=" M0.14800000190734863,-95 C-64.9010009765625,-95 -130,-95 -130,-95 C-130,-95 -130,55 -130,55 C-130,77.09100341796875 -112.09100341796875,95 -90,95 C-90,95 90,95 90,95 C112.09100341796875,95 130,77.09100341796875 130,55 C130,55 130,-95 130,-95 C130,-95 130,-95 130,-95 C130,-95 65.0989990234375,-95 0.14800000190734863,-95"/><g opacity="1" transform="matrix(1,0,0,1,0,0)"><path stroke-linecap="round" stroke-linejoin="round" fill-opacity="0" class="primary" stroke="rgb(21,198,45)" stroke-opacity="1" stroke-width="7" d=" M0.14800000190734863,-95 C-64.9010009765625,-95 -130,-95 -130,-95 C-130,-95 -130,55 -130,55 C-130,77.09100341796875 -112.09100341796875,95 -90,95 C-90,95 90,95 90,95 C112.09100341796875,95 130,77.09100341796875 130,55 C130,55 130,-95 130,-95 C130,-95 130,-95 130,-95 C130,-95 65.0989990234375,-95 0.14800000190734863,-95"/></g></g><g transform="matrix(1,0,0,1,132.5,285)" opacity="0.5" style="mix-blend-mode: multiply; display: block;"><g opacity="1" transform="matrix(1,0,0,1,0,0)"><path class="primary" fill="rgb(21,198,45)" fill-opacity="1" d=" M-49.97800064086914,-97.18299865722656 C-49.40700149536133,-97.96299743652344 -48.012001037597656,-98.22100067138672 -48.012001037597656,-98.22100067138672 C-48.012001037597656,-98.22100067138672 6.947000026702881,-98.43800354003906 6.947000026702881,-98.43800354003906 C6.947000026702881,-98.43800354003906 8.104000091552734,58.19300079345703 8.104000091552734,58.19300079345703 C8.104000091552734,80.28399658203125 26.01300048828125,98.19300079345703 48.104000091552734,98.19300079345703 C48.104000091552734,98.19300079345703 -6.895999908447266,98.19300079345703 -6.895999908447266,98.19300079345703 C-31.304000854492188,98.19300079345703 -51.090999603271484,78.40599822998047 -51.090999603271484,53.99800109863281 C-51.090999603271484,53.99800109863281 -50.91600036621094,-94.25499725341797 -50.91600036621094,-94.25499725341797 C-50.91600036621094,-94.25499725341797 -50.75699996948242,-96.11900329589844 -49.97800064086914,-97.18299865722656z"/></g></g><g transform="matrix(0.8999999761581421,0,0,0.8999999761581421,215,285)" opacity="1" style="display: block;"><g opacity="1" transform="matrix(1,0,0,1,0,0)"><path class="secondary" fill="rgb(9,92,20)" fill-opacity="1" d=" M-32,-35 C-33.65570068359375,-35 -35,-33.65570068359375 -35,-32 C-35,-32 -35,32 -35,32 C-35,33.65570068359375 -33.65570068359375,35 -32,35 C-32,35 32,35 32,35 C33.65570068359375,35 35,33.65570068359375 35,32 C35,32 35,-32 35,-32 C35,-33.65570068359375 33.65570068359375,-35 32,-35 C32,-35 -32,-35 -32,-35z"/></g></g><g transform="matrix(0.8999999761581421,0,0,0.8999999761581421,199.25,285)" opacity="0.5" style="mix-blend-mode: multiply; display: block;"><g opacity="1" transform="matrix(1,0,0,1,0,0)"><path class="secondary" fill="rgb(9,92,20)" fill-opacity="1" d=" M17.5,-35 C17.5,-35 -17.5,-35 -17.5,-35 C-17.5,-35 -17.5,35 -17.5,35 C-17.5,35 17.5,35 17.5,35 C17.5,35 17.5,-35 17.5,-35z"/></g></g></g></g></svg>